<?xml version="1.0" encoding="UTF-8"?>
<svg id="Capa_1" xmlns="http://www.w3.org/2000/svg" version="1.1" xmlns:xlink="http://www.w3.org/1999/xlink" viewBox="0 0 400 400">
  <!-- Generator: Adobe Illustrator 29.7.1, SVG Export Plug-In . SVG Version: 2.1.1 Build 8)  -->
  <defs>
    <style>
      .st0 {
        fill: #fff;
      }

      .st1 {
        fill: url(#Degradado_sin_nombre_23);
      }
    </style>
    <linearGradient id="Degradado_sin_nombre_23" data-name="Degradado sin nombre 23" x1="22" y1="22" x2="378" y2="378" gradientUnits="userSpaceOnUse">
      <stop offset="0" stop-color="#e5007e"/>
      <stop offset="1" stop-color="#6c3b5d"/>
    </linearGradient>
  </defs>
  <rect class="st1" width="400" height="400" rx="75" ry="75"/>
  <path class="st0" d="M163.7,59.7v156.6c0,12.8,2.8,23,8.4,30.4,5.6,7.5,14.7,11.2,27.3,11.2s21.9-3.7,27.9-11.2c6-7.5,9-17.6,9-30.4V59.7h86.8v156.6c0,26.4-5.5,49-16.5,67.7-11,18.7-26,32.8-45.1,42.2s-40.4,14.1-64,14.1-44.4-4.7-62.6-14.1c-18.2-9.4-32.4-23.4-42.6-42-10.2-18.6-15.3-41.2-15.3-67.9V59.7h86.8Z"/>
</svg>